<svg xmlns="http://www.w3.org/2000/svg" viewBox="0 0 512 512" role="img" aria-label="Kyungpook National University seal">
  <rect width="512" height="512" fill="none"/>
  <circle cx="256" cy="256" r="218" fill="#fff" stroke="#d80d20" stroke-width="18"/>
  <circle cx="256" cy="256" r="156" fill="#d80d20"/>
  <circle cx="256" cy="256" r="104" fill="none" stroke="#fff" stroke-width="10"/>
  <g fill="#fff">
    <circle cx="214" cy="222" r="8"/>
    <circle cx="256" cy="204" r="8"/>
    <circle cx="298" cy="222" r="8"/>
    <circle cx="218" cy="272" r="8"/>
    <circle cx="294" cy="272" r="8"/>
    <path d="M256 138l12 24 26 4-19 18 5 26-24-13-24 13 5-26-19-18 26-4z"/>
    <path d="M211 342h90v14h-90zM219 314h74v13h-74zM227 286h58v13h-58zM236 258h40v13h-40z"/>
    <path d="M228 238h56v14h-56z"/>
  </g>
  <text x="256" y="82" text-anchor="middle" font-family="Arial, sans-serif" font-size="34" font-weight="800" fill="#d80d20">KYUNGPOOK NATIONAL UNIVERSITY</text>
  <text x="256" y="448" text-anchor="middle" font-family="Arial, sans-serif" font-size="36" font-weight="800" fill="#d80d20">경북대학교</text>
</svg>
